<?xml version="1.0" encoding="utf-8"?>
<!DOCTYPE svg PUBLIC "-//W3C//DTD SVG 1.1//EN" "http://www.w3.org/Graphics/SVG/1.1/DTD/svg11.dtd">
<svg version="1.1" xmlns="http://www.w3.org/2000/svg" xmlns:xlink="http://www.w3.org/1999/xlink" x="0px" y="0px" viewBox="0 0 1000 1000" enable-background="new 0 0 1000 1000" xml:space="preserve">
<metadata> Svg Vector Icons : http://www.onlinewebfonts.com/icon </metadata>
<g><g transform="translate(0.000000,512.000000) scale(0.100000,-0.100000)"><path d="M4884.5,5001.6c-245-42.1-112.9,80.4-2511.6-2314.4C1153.4,1469.6,142.6,451.2,127.3,422.5c-45.9-88.1-34.5-164.6,38.3-237.4l65.1-65.1h547.5h547.5v-2385.3v-2385.3l65.1-65.1l65.1-65.1h1791.8c1987.1,0,1881.8-7.7,1937.3,124.4c34.5,82.3,17.2,166.6-44,224l-47.9,44l-1677,9.6l-1678.9,9.6l-9.6,2396.7l-9.6,2396.8l-44,44c-42.1,42.1-57.4,44-453.7,53.6l-411.6,9.6l2034.9,2034.9l2033,2033h124.4h122.5l805.9-802.1c867.2-865.3,859.6-859.5,993.6-796.4c124.4,59.3,126.3,72.7,126.3,888.3v729.4l608.8-3.8l606.9-5.7l9.6-1579.3c5.7-869.1,11.5-1583.2,15.3-1588.9c1.9-3.8,208.7-212.5,457.5-463.3l453.7-455.6h-407.8h-407.8l-55.5-55.5l-55.5-55.5v-696.8c0-629.8,3.8-698.7,34.5-735.1c84.2-105.3,208.7-113,302.5-19.2l65.1,65.1v547.5V120h543.7h543.7l59.4,49.8c61.3,51.7,91.9,145.5,68.9,222.1c-7.7,23-283.3,315.9-614.5,647l-601.1,603l-3.8,1632.9l-5.7,1634.9l-63.2,55.5l-61.3,55.5H7666c-660.4,0-886.3-5.7-922.7-24.9c-26.8-13.4-63.2-53.6-80.4-90c-30.6-59.3-34.5-132.1-34.5-641.3v-572.4l-597.3,595.4c-359.9,356.1-629.8,608.8-675.8,631.7C5198.4,4997.8,5031.9,5026.5,4884.5,5001.6z"/><path d="M3479.3,97.1c-21.1-11.5-53.6-38.3-70.8-61.3C3377.9-0.6,3374-111.6,3374-1511v-1508.5l55.5-61.3l55.5-63.2l850-5.7c570.5-3.8,871,0,918.9,15.3c151.2,44,199.1,212.5,93.8,329.3l-55.5,63.2l-758.1,5.7l-758.1,5.7v1223.3V-282h1225.2h1225.2v-40.2c0-65.1,118.7-170.4,191.4-170.4c76.6,0,162.7,49.8,189.5,109.1c30.6,67,26.8,342.7-5.8,405.8c-15.3,28.7-49.8,61.3-78.5,74.6C6454.2,127.7,3536.8,129.6,3479.3,97.1z"/><path d="M7108.9,49.2c-38.3-40.2-86.1-158.9-193.3-493.9c-78.5-241.2-195.3-599.2-260.3-794.5l-114.9-354.2l-876.8-9.6l-876.8-9.6l-55.5-63.2c-59.3-67-70.8-139.7-34.5-222.1c13.4-26.8,298.6-248.9,700.7-539.8c375.2-271.8,683.4-503.5,689.2-516.9c3.8-11.5-99.6-375.2-231.6-807.9c-132.1-432.7-241.2-805.9-241.2-832.7c0-114.9,170.4-220.2,275.7-170.4c23,9.6,336.9,235.5,696.8,499.7c402,294.8,666.2,476.7,679.6,467.1c13.4-7.6,298.6-216.3,633.7-461.3c691.1-507.3,712.1-520.7,777.2-520.7c76.6,0,166.6,67,189.5,139.7c24.9,70.8,32.5,42.1-321.6,1190.7c-84.2,273.8-147.4,503.5-139.7,509.2c7.7,7.7,302.5,222.1,654.7,476.7c352.2,254.6,664.3,486.3,693,513c67,63.2,86.1,153.1,45.9,229.7c-63.2,122.5-28.7,118.7-982.1,118.7c-476.7,0-867.2,5.7-867.2,11.5c0,5.8-116.8,369.5-260.3,807.9c-287.1,888.3-285.2,884.4-440.3,884.4C7179.7,100.9,7151,89.4,7108.9,49.2z M7681.3-1966.6c44-34.5,91.9-38.3,675.8-42.1l627.9-5.7l-495.8-359.9c-478.6-348.4-539.8-403.9-539.8-493.9c0-21.1,76.6-289.1,172.3-595.4c93.8-308.2,168.5-560.9,166.5-564.7c-3.8-1.9-224,153.1-490.1,348.4c-520.7,381-543.7,392.4-662.4,317.8c-30.6-19.1-250.8-178-488.2-352.2c-237.4-174.2-432.6-310.1-436.5-302.5c-1.9,7.6,72.7,268,168.5,576.2c116.8,379,170.4,580,162.7,614.5c-15.3,70.8-57.4,103.4-574.3,478.6l-459.4,333.1l635.6,9.6l637.5,9.6l45.9,47.9c32.5,34.5,99.5,210.6,231.6,622.2L7246.7-751l193.4-589.6C7597.1-1817.3,7643-1937.9,7681.3-1966.6z"/></g></g>
</svg>
